<?xml version="1.0" encoding="UTF-8" standalone="no"?>
<!DOCTYPE svg PUBLIC "-//W3C//DTD SVG 1.1//EN"
 "http://www.w3.org/Graphics/SVG/1.1/DTD/svg11.dtd">
<!-- Generated by graphviz version 14.1.2 (0)
 -->
<!-- Pages: 1 -->
<svg width="86pt" height="44pt"
 viewBox="0.00 0.00 86.00 44.00" xmlns="http://www.w3.org/2000/svg" xmlns:xlink="http://www.w3.org/1999/xlink">
<g id="graph0" class="graph" transform="scale(1 1) rotate(0) translate(4 40)">
<polygon fill="white" stroke="none" points="-4,4 -4,-40 81.5,-40 81.5,4 -4,4"/>
<!-- NDVIInjection -->
<g id="node1" class="node">
<title>NDVIInjection</title>
<path fill="#f8f9fa" stroke="black" d="M65.5,-36C65.5,-36 12,-36 12,-36 6,-36 0,-30 0,-24 0,-24 0,-12 0,-12 0,-6 6,0 12,0 12,0 65.5,0 65.5,0 71.5,0 77.5,-6 77.5,-12 77.5,-12 77.5,-24 77.5,-24 77.5,-30 71.5,-36 65.5,-36"/>
<text xml:space="preserve" text-anchor="middle" x="38.75" y="-14.12" font-family="Helvetica,sans-Serif" font-size="10.00">NDVIInjection</text>
</g>
</g>
</svg>
